<?xml version="1.0" encoding="utf-8"?>
<!-- Generator: Adobe Illustrator 26.5.0, SVG Export Plug-In . SVG Version: 6.00 Build 0)  -->
<svg version="1.1" id="Layer_1" xmlns="http://www.w3.org/2000/svg" xmlns:xlink="http://www.w3.org/1999/xlink" x="0px" y="0px"
	 viewBox="0 0 490 490" style="enable-background:new 0 0 490 490;" xml:space="preserve">
<style type="text/css">
	.st0{stroke:#FFFFFF;stroke-width:20;stroke-miterlimit:10;}
</style>
<g id="XMLID_519_">
	<g>
		<g>
			<path class="st0" d="M431.5,32.5v-25h-30v25h-83.3v-25h-30v25h-83.3v-25h-30v25H91.5v-25h-30v25H0v390h460v30H0v30h490v-450
				H431.5z M61.5,62.5v25h30v-25h83.3v25h30v-25h83.3v25h30v-25h83.3v25h30v-25H460v50H30v-50H61.5z M30,392.5v-250h430v250H30z"/>
			<path class="st0" d="M70,352.5h350v-170H70V352.5z M100,282.5h74.8v40H100V282.5z M288.2,282.5v40h-83.3v-40H288.2z M204.8,252.5
				v-40h83.3v40H204.8z M318.2,322.5v-40H390v40H318.2z M390,252.5h-71.8v-40H390V252.5z M174.8,212.5v40H100v-40H174.8z"/>
		</g>
	</g>
</g>
</svg>
