<?xml version="1.0" encoding="utf-8"?>
<!-- Generator: Adobe Illustrator 26.5.0, SVG Export Plug-In . SVG Version: 6.00 Build 0)  -->
<svg version="1.1" id="Capa_1" xmlns="http://www.w3.org/2000/svg" xmlns:xlink="http://www.w3.org/1999/xlink" x="0px" y="0px"
	 viewBox="0 0 35 35" style="enable-background:new 0 0 35 35;" xml:space="preserve">
<style type="text/css">
	.st0{stroke:#FFFFFF;stroke-width:3;stroke-miterlimit:10;}
</style>
<g>
	<path class="st0" d="M11.8,10.5l-7,7l7,7c0.8,0.8,0.8,2,0,2.8c-0.4,0.4-0.9,0.6-1.4,0.6s-1-0.2-1.4-0.6l-8.4-8.4
		C0.2,18.6,0,18,0,17.5c0-0.5,0.2-1,0.6-1.4L9,7.7c0.8-0.8,2-0.8,2.8,0C12.6,8.5,12.6,9.8,11.8,10.5z M34.4,16.1l-8.4-8.4
		c-0.8-0.8-2-0.8-2.8,0c-0.8,0.8-0.8,2,0,2.8l7,7l-7,7c-0.8,0.8-0.8,2,0,2.8c0.4,0.4,0.9,0.6,1.4,0.6s1-0.2,1.4-0.6l8.4-8.4
		c0.4-0.4,0.6-0.9,0.6-1.4C35,17,34.8,16.5,34.4,16.1z M21,3.8c-1.1-0.3-2.2,0.4-2.4,1.4l-6,23.5c-0.3,1.1,0.4,2.2,1.4,2.4
		c0.2,0,0.3,0.1,0.5,0.1c0.9,0,1.7-0.6,1.9-1.5l6-23.5C22.7,5.2,22.1,4.1,21,3.8z"/>
</g>
</svg>
