<?xml version="1.0" encoding="utf-8"?>
<!-- Generator: Adobe Illustrator 26.5.0, SVG Export Plug-In . SVG Version: 6.00 Build 0)  -->
<svg version="1.1" id="Layer_1" xmlns="http://www.w3.org/2000/svg" xmlns:xlink="http://www.w3.org/1999/xlink" x="0px" y="0px"
	 viewBox="0 0 475 475" style="enable-background:new 0 0 475 475;" xml:space="preserve">
<style type="text/css">
	.st0{stroke:#FFFFFF;stroke-width:16;stroke-miterlimit:10;}
</style>
<g id="XMLID_786_">
	<g>
		<g>
			<path class="st0" d="M202.5,115h30c0-10.7,2.4-15.4,5.8-21.8c4.1-7.9,9.2-17.6,9.2-35.7s-5.1-27.8-9.2-35.7
				c-3.4-6.5-5.8-11.1-5.8-21.8h-30c0,18.1,5.1,27.8,9.2,35.7c3.4,6.5,5.8,11.1,5.8,21.8s-2.4,15.4-5.8,21.8
				C207.6,87.2,202.5,96.9,202.5,115z"/>
			<path class="st0" d="M131.5,115h30c0-10.7,2.4-15.4,5.8-21.8c4.1-7.9,9.2-17.6,9.2-35.7s-5.1-27.8-9.2-35.7
				c-3.4-6.5-5.8-11.1-5.8-21.8h-30c0,18.1,5.1,27.8,9.2,35.7c3.4,6.5,5.8,11.1,5.8,21.8s-2.4,15.4-5.8,21.8
				C136.6,87.2,131.5,96.9,131.5,115z"/>
			<path class="st0" d="M317.5,205c-1.7,0-3.3,0-5,0.1V145h-260v265c0,35.8,29.2,65,65,65h130c34.2,0,62.3-26.6,64.8-60.1
				c1.7,0.1,3.5,0.1,5.2,0.1c57.9,0,105-47.1,105-105S375.4,205,317.5,205z M282.5,410c0,19.3-15.7,35-35,35h-130
				c-19.3,0-35-15.7-35-35V175h200V410z M317.5,385c-1.7,0-3.3-0.1-5-0.2V235.2c1.7-0.1,3.3-0.2,5-0.2c41.4,0,75,33.6,75,75
				S358.9,385,317.5,385z"/>
		</g>
	</g>
</g>
</svg>
