<?xml version="1.0" encoding="utf-8"?>
<!-- Generator: Adobe Illustrator 26.5.0, SVG Export Plug-In . SVG Version: 6.00 Build 0)  -->
<svg version="1.1" id="Layer_1" xmlns="http://www.w3.org/2000/svg" xmlns:xlink="http://www.w3.org/1999/xlink" x="0px" y="0px"
	 viewBox="0 0 490 490" style="enable-background:new 0 0 490 490;" xml:space="preserve">
<style type="text/css">
	.st0{stroke:#FFFFFF;stroke-width:16;stroke-miterlimit:10;}
</style>
<g id="XMLID_822_">
	<g>
		<g>
			<path class="st0" d="M393,248c33.1,0,60-26.9,60-60s-26.9-60-60-60s-60,26.9-60,60S359.9,248,393,248z M393,158
				c16.5,0,30,13.5,30,30s-13.5,30-30,30s-30-13.5-30-30S376.5,158,393,158z"/>
			<path class="st0" d="M393,278c-19,0-37.4,5.5-53,15.8C317,267,283,250,245,250s-72,17-95,43.8c-15.7-10.3-34-15.8-53-15.8
				c-53.5,0-97,43.5-97,97v15h230v30h30v-30h230v-15C490,321.5,446.5,278,393,278z M120.9,360H31.7c6.8-29.7,33.5-52,65.3-52
				c13,0,25.6,3.8,36.4,10.8C127,331.4,122.7,345.3,120.9,360z M230,360h-78.8c6.4-40.4,38.4-72.4,78.8-78.8V360z M260,360v-78.8
				c40.4,6.4,72.4,38.4,78.8,78.8H260z M369.1,360c-1.8-14.7-6.1-28.6-12.5-41.2c10.8-7,23.3-10.8,36.4-10.8
				c31.8,0,58.5,22.3,65.3,52H369.1z"/>
			<path class="st0" d="M97,248c33.1,0,60-26.9,60-60s-26.9-60-60-60s-60,26.9-60,60S63.9,248,97,248z M97,158c16.5,0,30,13.5,30,30
				s-13.5,30-30,30s-30-13.5-30-30S80.5,158,97,158z"/>
			<path class="st0" d="M245,220c41.4,0,75-33.6,75-75s-33.6-75-75-75s-75,33.6-75,75S203.6,220,245,220z M245,100
				c24.8,0,45,20.2,45,45s-20.2,45-45,45s-45-20.2-45-45S220.2,100,245,100z"/>
		</g>
	</g>
</g>
</svg>
